<svg xmlns="http://www.w3.org/2000/svg" viewBox="0 0 960 640" role="img" aria-labelledby="title desc">
  <title id="title">adidas Shop checkout preview</title>
  <desc id="desc">A custom illustration of a mobile shopping bag and checkout flow.</desc>
  <rect width="960" height="640" fill="#7e74f1"/>
  <rect x="80" y="72" width="800" height="496" rx="36" fill="#f5f3fe"/>
  <rect x="132" y="128" width="280" height="384" rx="34" fill="#7e74f1"/>
  <rect x="158" y="166" width="228" height="58" rx="16" fill="#ffffff"/>
  <rect x="158" y="248" width="92" height="92" rx="18" fill="#e9e6ff"/>
  <path d="M184 304c35-4 61-22 77-51 12 39 37 61 75 66-52 16-103 11-152-15Z" fill="#7e74f1"/>
  <rect x="268" y="252" width="88" height="14" rx="7" fill="#ffffff"/>
  <rect x="268" y="282" width="70" height="10" rx="5" fill="#8b86a8"/>
  <rect x="158" y="372" width="198" height="18" rx="9" fill="#ffffff"/>
  <rect x="158" y="412" width="228" height="52" rx="18" fill="#7e74f1"/>
  <text x="272" y="446" fill="#ffffff" font-family="Arial, sans-serif" font-size="22" font-weight="700" text-anchor="middle">Checkout</text>
  <rect x="486" y="142" width="330" height="84" rx="24" fill="#7e74f1"/>
  <rect x="518" y="170" width="168" height="16" rx="8" fill="#ffffff"/>
  <rect x="518" y="198" width="246" height="10" rx="5" fill="#8b86a8"/>
  <rect x="486" y="260" width="330" height="84" rx="24" fill="#e9e6ff"/>
  <rect x="518" y="290" width="196" height="16" rx="8" fill="#7e74f1"/>
  <rect x="518" y="318" width="238" height="10" rx="5" fill="#8b86a8"/>
  <rect x="486" y="378" width="330" height="84" rx="24" fill="#7e74f1"/>
  <rect x="518" y="408" width="138" height="16" rx="8" fill="#ffffff"/>
  <rect x="518" y="436" width="260" height="10" rx="5" fill="#8b86a8"/>
  <text x="486" y="530" fill="#7e74f1" font-family="Arial, sans-serif" font-size="30" font-weight="700">Lower funnel ownership</text>
</svg>
