<svg xmlns="http://www.w3.org/2000/svg" viewBox="0 0 960 640" role="img" aria-labelledby="title desc">
  <title id="title">Teampaygo fintech preview</title>
  <desc id="desc">A custom illustration of expense requests, approvals, and wallet cards.</desc>
  <rect width="960" height="640" fill="#7e74f1"/>
  <rect x="80" y="72" width="800" height="496" rx="36" fill="#f5f3fe"/>
  <rect x="138" y="132" width="322" height="380" rx="32" fill="#ffffff"/>
  <rect x="176" y="176" width="168" height="18" rx="9" fill="#7e74f1"/>
  <rect x="176" y="224" width="230" height="70" rx="20" fill="#7e74f1"/>
  <rect x="176" y="324" width="230" height="70" rx="20" fill="#e9e6ff"/>
  <rect x="176" y="424" width="190" height="18" rx="9" fill="#8b86a8"/>
  <rect x="520" y="150" width="286" height="182" rx="28" fill="#7e74f1"/>
  <text x="552" y="204" fill="#ffffff" font-family="Arial, sans-serif" font-size="26" font-weight="700">Wallet</text>
  <rect x="552" y="246" width="188" height="14" rx="7" fill="#e9e6ff"/>
  <rect x="520" y="372" width="286" height="96" rx="28" fill="#ffffff"/>
  <circle cx="570" cy="420" r="22" fill="#7e74f1"/>
  <path d="m558 420 9 9 18-22" fill="none" stroke="#ffffff" stroke-width="7" stroke-linecap="round" stroke-linejoin="round"/>
  <text x="616" y="428" fill="#7e74f1" font-family="Arial, sans-serif" font-size="24" font-weight="700">Approved</text>
  <text x="138" y="548" fill="#7e74f1" font-family="Arial, sans-serif" font-size="30" font-weight="700">Expense requests and approvals</text>
</svg>
